<svg xmlns="http://www.w3.org/2000/svg" viewBox="0 0 1080 1080" width="1080" height="1080">
  <defs>
    <linearGradient id="bg" x1="0" y1="0" x2="1" y2="1">
      <stop offset="0%" stop-color="#FFF9F0"/>
      <stop offset="100%" stop-color="#FFEFC2"/>
    </linearGradient>
    <filter id="shadow" x="-20%" y="-20%" width="140%" height="140%">
      <feDropShadow dx="12" dy="12" stdDeviation="0" flood-color="#1A1A1A" flood-opacity="1"/>
    </filter>
  </defs>

  <rect width="1080" height="1080" fill="url(#bg)"/>
  <rect x="48" y="48" width="984" height="984" fill="#FFF9F0" stroke="#1A1A1A" stroke-width="8" filter="url(#shadow)"/>

  <rect x="90" y="90" width="250" height="54" fill="#FF4D00" stroke="#1A1A1A" stroke-width="6"/>
  <text x="215" y="126" text-anchor="middle" font-family="Space Grotesk, Arial, sans-serif" font-size="28" font-weight="800" fill="#FFF9F0" letter-spacing="4">UNROT</text>

  <text x="90" y="250" font-family="Space Grotesk, Arial, sans-serif" font-size="118" font-weight="800" fill="#1A1A1A" letter-spacing="2">UNROT</text>
  <text x="90" y="360" font-family="Space Grotesk, Arial, sans-serif" font-size="118" font-weight="800" fill="#1A1A1A" letter-spacing="2">YOUR BRAIN.</text>

  <rect x="90" y="420" width="470" height="66" fill="#FFD600" stroke="#1A1A1A" stroke-width="6"/>
  <text x="325" y="464" text-anchor="middle" font-family="JetBrains Mono, monospace" font-size="24" font-weight="700" fill="#1A1A1A" letter-spacing="3">ESCAPE THE SCROLL</text>

  <text x="90" y="570" font-family="Outfit, Arial, sans-serif" font-size="46" font-weight="700" fill="#1A1A1A">Depth over doomscrolling.</text>
  <text x="90" y="630" font-family="Outfit, Arial, sans-serif" font-size="32" font-weight="600" fill="#1A1A1A">Curated rabbit holes for people who still want to think.</text>

  <g transform="translate(650 240)">
    <rect x="0" y="0" width="300" height="300" fill="#FFF1D8" stroke="#1A1A1A" stroke-width="8"/>
    <rect x="24" y="24" width="252" height="252" fill="#FFF9F0" stroke="#1A1A1A" stroke-width="6"/>
    <circle cx="150" cy="150" r="88" fill="#FFD600" stroke="#1A1A1A" stroke-width="8"/>
    <circle cx="150" cy="150" r="30" fill="#1A1A1A"/>
    <path d="M150 62 C190 98, 214 132, 150 238 C86 132, 110 98, 150 62 Z" fill="none" stroke="#1A1A1A" stroke-width="8"/>
  </g>

  <rect x="90" y="848" width="900" height="86" fill="#1A1A1A"/>
  <text x="540" y="903" text-anchor="middle" font-family="Space Grotesk, Arial, sans-serif" font-size="34" font-weight="800" fill="#FFF9F0" letter-spacing="5">FOCUS FEELS VIRAL</text>
</svg>
